<svg width="720" height="560" viewBox="0 0 720 560" fill="none" xmlns="http://www.w3.org/2000/svg">
  <rect width="720" height="560" rx="36" fill="#0E1D1B"/>
  <rect x="54" y="54" width="612" height="452" rx="30" fill="#102724" stroke="#224744" stroke-width="2"/>
  <rect x="118" y="92" width="276" height="360" rx="22" fill="#EAF4F2" stroke="#9AC8C1" stroke-width="6"/>
  <path d="M326 92H394V160L326 92Z" fill="#CDE4E0"/>
  <rect x="154" y="156" width="196" height="18" rx="9" fill="#D7E8E5"/>
  <rect x="154" y="198" width="140" height="14" rx="7" fill="#D7E8E5"/>
  <rect x="154" y="230" width="166" height="14" rx="7" fill="#D7E8E5"/>
  <rect x="154" y="262" width="122" height="14" rx="7" fill="#D7E8E5"/>
  <path d="M198 322L240 364" stroke="#F87272" stroke-width="16" stroke-linecap="round"/>
  <path d="M240 322L198 364" stroke="#F87272" stroke-width="16" stroke-linecap="round"/>
  <circle cx="474" cy="162" r="18" fill="#F8FAFC"/>
  <circle cx="556" cy="138" r="18" fill="#FBBF24"/>
  <circle cx="612" cy="194" r="18" fill="#FB7185"/>
  <path d="M474 162C504 146 526 140 556 138C584 136 594 154 612 194" stroke="#56D3C6" stroke-width="12" stroke-linecap="round"/>
  <path d="M438 282H630" stroke="#224744" stroke-width="2" stroke-dasharray="8 10"/>
  <rect x="448" y="306" width="174" height="110" rx="24" fill="#14322D" stroke="#2C5B56" stroke-width="2"/>
  <path d="M506 334L536 388H476L506 334Z" fill="#FBBF24"/>
  <rect x="500" y="352" width="12" height="22" rx="6" fill="#102724"/>
  <circle cx="506" cy="381" r="6" fill="#102724"/>
  <rect x="558" y="336" width="34" height="12" rx="6" fill="#9AC8C1"/>
  <rect x="558" y="358" width="48" height="12" rx="6" fill="#9AC8C1"/>
  <rect x="558" y="380" width="28" height="12" rx="6" fill="#9AC8C1"/>
</svg>
